<svg width="51" height="51" viewBox="0 0 51 51" fill="none" xmlns="http://www.w3.org/2000/svg">
    <g clip-path="url(#clip0_152_276)">
        <path d="M47.9775 0.802124L43.961 45.7969L25.9068 50.8019L7.90226 45.8039L3.89001 0.802124H47.9775Z" fill="#264DE4"/>
        <path d="M40.5224 42.9315L43.9548 4.48145H25.9337V46.9761L40.5224 42.9315Z" fill="#2965F1"/>
        <path d="M13.088 21.172L13.5827 26.6912H25.9338V21.172H13.088Z" fill="#EBEBEB"/>
        <path d="M25.9338 10.0007H25.9147H12.094L12.5957 15.5201H25.9338V10.0007Z" fill="#EBEBEB"/>
        <path d="M25.9337 41.2484V35.5061L25.9095 35.5125L19.7627 33.8527L19.3697 29.4508H16.3828H13.8292L14.6025 38.1169L25.9083 41.2555L25.9337 41.2484Z" fill="#EBEBEB"/>
        <path d="M32.7111 26.6911L32.0704 33.8492L25.9147 35.5107V41.2528L37.2295 38.1169L37.3125 37.1845L38.6095 22.654L38.7442 21.1719L39.7406 10.0007H25.9147V15.5201H33.6919L33.1897 21.1719H25.9147V26.6911H32.7111Z" fill="white"/>
    </g>
    <defs>
        <clipPath id="clip0_152_276">
            <rect width="50" height="50" fill="white" transform="translate(0.890015 0.801636)"/>
        </clipPath>
    </defs>
</svg>
