<svg width="51" height="51" viewBox="0 0 51 51" fill="none" xmlns="http://www.w3.org/2000/svg">
    <g clip-path="url(#clip0_152_290)">
        <path d="M50.3971 21.346C50.2615 21.2383 48.9956 20.2825 46.3259 20.2825C45.621 20.2856 44.9175 20.346 44.2224 20.4633C43.7057 16.9217 40.7777 15.195 40.6464 15.1176L39.9295 14.7041L39.458 15.3845C38.8676 16.2985 38.4365 17.306 38.1835 18.3642C37.7055 20.3858 37.9962 22.2847 39.0231 23.908C37.783 24.5991 35.7937 24.7692 35.3911 24.7842H2.45539C1.59512 24.7854 0.897048 25.4806 0.892359 26.3408C0.853943 29.2262 1.34279 32.0943 2.33482 34.804C3.4694 37.7794 5.15734 39.9711 7.35334 41.3124C9.81419 42.8195 13.8122 43.6806 18.3441 43.6806C20.3914 43.687 22.4349 43.5018 24.4477 43.1273C27.2458 42.6136 29.9382 41.6356 32.4136 40.2337C34.4533 39.0525 36.2891 37.5499 37.8498 35.7836C40.4592 32.8297 42.0137 29.54 43.1698 26.6164H43.6305C46.4874 26.6164 48.2443 25.4732 49.2131 24.5151C49.8569 23.9041 50.3596 23.1598 50.6857 22.3342L50.8901 21.7357L50.3971 21.346Z" fill="#2496ED"/>
        <path d="M5.50812 23.8197H9.92166C10.1345 23.8197 10.307 23.6472 10.307 23.4344V19.503C10.3082 19.2902 10.1366 19.1167 9.92381 19.1155H9.92166H5.50812C5.29526 19.1155 5.12277 19.2881 5.12277 19.5009V19.503V23.4343C5.12277 23.6472 5.29526 23.8197 5.50812 23.8197Z" fill="#2496ED"/>
        <path d="M11.5902 23.8197H16.0038C16.2166 23.8197 16.3891 23.6472 16.3891 23.4344V19.503C16.3903 19.2902 16.2187 19.1167 16.0059 19.1155H16.0037H11.5902C11.3761 19.1155 11.2026 19.289 11.2026 19.503V23.4343C11.2039 23.6475 11.377 23.8197 11.5902 23.8197Z" fill="#2496ED"/>
        <path d="M17.7648 23.8197H22.1784C22.3912 23.8197 22.5637 23.6472 22.5637 23.4344V19.503C22.5649 19.2902 22.3933 19.1167 22.1805 19.1155H22.1783H17.7648C17.5519 19.1155 17.3794 19.2881 17.3794 19.5009V19.503V23.4343C17.3795 23.6472 17.552 23.8197 17.7648 23.8197Z" fill="#2496ED"/>
        <path d="M23.8663 23.8197H28.2798C28.493 23.8197 28.6662 23.6476 28.6673 23.4344V19.503C28.6673 19.289 28.4939 19.1155 28.2798 19.1155H23.8663C23.6534 19.1155 23.4809 19.2881 23.4809 19.5009V19.503V23.4343C23.4809 23.6472 23.6535 23.8197 23.8663 23.8197Z" fill="#2496ED"/>
        <path d="M11.5902 18.164H16.0038C16.2169 18.1628 16.3891 17.9896 16.3891 17.7764V13.8452C16.3891 13.6323 16.2166 13.4598 16.0038 13.4598H11.5902C11.3771 13.4598 11.2039 13.632 11.2027 13.8452V17.7764C11.2039 17.99 11.3767 18.1628 11.5902 18.164Z" fill="#2496ED"/>
        <path d="M17.7648 18.164H22.1784C22.3915 18.1628 22.5637 17.9896 22.5637 17.7764V13.8452C22.5637 13.6323 22.3911 13.4598 22.1784 13.4598H17.7648C17.552 13.4598 17.3795 13.6324 17.3795 13.8452V17.7764C17.3795 17.9896 17.5517 18.1628 17.7648 18.164Z" fill="#2496ED"/>
        <path d="M23.8663 18.164H28.2798C28.4934 18.1628 28.6662 17.99 28.6673 17.7764V13.8452C28.6662 13.632 28.493 13.4598 28.2798 13.4598H23.8663C23.6534 13.4598 23.4809 13.6324 23.4809 13.8452V17.7764C23.4809 17.9896 23.6531 18.1628 23.8663 18.164Z" fill="#2496ED"/>
        <path d="M23.8663 12.5061H28.2798C28.493 12.5061 28.6662 12.3339 28.6673 12.1207V8.18723C28.6662 7.97403 28.493 7.80188 28.2798 7.80188H23.8663C23.6534 7.80188 23.4809 7.97438 23.4809 8.18723V12.1207C23.4809 12.3335 23.6535 12.5061 23.8663 12.5061Z" fill="#2496ED"/>
        <path d="M30.0216 23.8197H34.4351C34.6483 23.8197 34.8214 23.6476 34.8226 23.4344V19.503C34.8226 19.289 34.6491 19.1155 34.4351 19.1155H30.0216C29.8088 19.1155 29.6362 19.2881 29.6362 19.5009V19.503V23.4343C29.6362 23.6472 29.8088 23.8197 30.0216 23.8197Z" fill="#2496ED"/>
    </g>
    <defs>
        <clipPath id="clip0_152_290">
            <rect width="50" height="50" fill="white" transform="translate(0.890015 0.801636)"/>
        </clipPath>
    </defs>
</svg>
