<svg width="51" height="51" viewBox="0 0 51 51" fill="none" xmlns="http://www.w3.org/2000/svg">
    <g clip-path="url(#clip0_152_304)">
        <path d="M17.5567 50.8022C22.1567 50.8022 25.8901 47.0686 25.8901 42.4686V34.1353H17.5567C12.9567 34.1353 9.22336 37.8686 9.22336 42.4686C9.22336 47.0686 12.9567 50.8022 17.5567 50.8022Z" fill="#0ACF83"/>
        <path d="M9.22336 25.8019C9.22336 21.2019 12.9567 17.4685 17.5567 17.4685H25.8901V34.1352H17.5567C12.9567 34.1352 9.22336 30.4019 9.22336 25.8019Z" fill="#A259FF"/>
        <path d="M9.22336 9.13543C9.22336 4.53546 12.9567 0.802124 17.5567 0.802124H25.8901V17.4688H17.5567C12.9567 17.4688 9.22336 13.7354 9.22336 9.13543Z" fill="#F24E1E"/>
        <path d="M25.89 0.802124H34.2234C38.8234 0.802124 42.5567 4.53546 42.5567 9.13543C42.5567 13.7354 38.8234 17.4688 34.2234 17.4688H25.89V0.802124Z" fill="#FF7262"/>
        <path d="M42.5567 25.8019C42.5567 30.4019 38.8234 34.1352 34.2234 34.1352C29.6234 34.1352 25.89 30.4019 25.89 25.8019C25.89 21.2019 29.6234 17.4685 34.2234 17.4685C38.8234 17.4685 42.5567 21.2019 42.5567 25.8019Z" fill="#1ABCFE"/>
    </g>
    <defs>
        <clipPath id="clip0_152_304">
            <rect width="50" height="50" fill="white" transform="translate(0.890015 0.801636)"/>
        </clipPath>
    </defs>
</svg>
