<svg width="51" height="51" viewBox="0 0 51 51" fill="none" xmlns="http://www.w3.org/2000/svg">
    <g clip-path="url(#clip0_152_271)">
        <path d="M7.90072 45.8191L3.89001 0.802124H47.9834L43.9727 45.7948L25.9002 50.8019" fill="#E44D26"/>
        <path d="M25.9365 46.9739V4.49695H43.9604L40.5209 42.9024" fill="#F16529"/>
        <path d="M12.0816 10.0023H25.9367V15.5201H18.1341L18.6445 21.1715H25.9367V26.6771H13.5886L12.0816 10.0023ZM13.8317 29.4481H19.3737L19.7626 33.8599L25.9367 35.5128V41.2736L14.6095 38.1136" fill="#EBEBEB"/>
        <path d="M39.7429 10.0023H25.9121V15.5201H39.2325L39.7429 10.0023ZM38.7342 21.1715H25.9121V26.6892H32.7181L32.074 33.8599L25.9121 35.5128V41.2493L37.215 38.1136" fill="white"/>
    </g>
    <defs>
        <clipPath id="clip0_152_271">
            <rect width="50" height="50" fill="white" transform="translate(0.890015 0.801636)"/>
        </clipPath>
    </defs>
</svg>
