<svg width="51" height="51" viewBox="0 0 51 51" fill="none" xmlns="http://www.w3.org/2000/svg">
    <g clip-path="url(#clip0_152_285)">
        <path d="M50.1258 30.7532C49.8351 29.8704 49.0737 29.2555 48.0889 29.1079C47.6246 29.0384 47.0928 29.068 46.4635 29.1981C45.3666 29.4251 44.5529 29.5115 43.959 29.5282C46.2006 25.733 48.0234 21.4053 49.0727 17.3314C50.7695 10.744 49.8628 7.74303 48.8032 6.38563C45.9992 2.79274 41.9081 0.862612 36.9726 0.803554C34.3397 0.771271 32.0284 1.29254 30.8227 1.6674C29.7 1.46877 28.493 1.35787 27.2264 1.33736C24.8522 1.29938 22.7545 1.81837 20.9621 2.88503C19.9698 2.54853 18.3771 2.07416 16.5379 1.77146C12.2122 1.05935 8.72581 1.61423 6.17571 3.42073C3.08776 5.60798 1.65628 9.40823 1.92102 14.7159C2.0051 16.4011 2.94516 21.5283 4.42531 26.3909C5.27599 29.1858 6.18311 31.5067 7.12146 33.2899C8.45216 35.8184 9.87612 37.3074 11.4746 37.8421C12.3705 38.1414 13.9984 38.351 15.7106 36.9211C15.9276 37.1847 16.2171 37.4466 16.6014 37.6898C17.0894 37.9984 17.6861 38.2506 18.2821 38.4C20.4298 38.9384 22.4415 38.8038 24.1578 38.0491C24.1684 38.3552 24.1765 38.6477 24.1834 38.9002C24.1947 39.3098 24.2061 39.7115 24.2211 40.0871C24.3227 42.6268 24.4951 44.6016 25.0056 45.9833C25.0337 46.0592 25.0713 46.1751 25.1111 46.2979C25.3658 47.0799 25.7917 48.3891 26.8753 49.4143C27.9974 50.4764 29.3546 50.8019 30.5977 50.8019C31.2211 50.8019 31.8159 50.7201 32.3377 50.608C34.1973 50.2083 36.3094 49.5995 37.8373 47.4179C39.2818 45.3556 39.984 42.2495 40.1111 37.3552C40.1276 37.2168 40.1427 37.0846 40.1573 36.9587L40.1876 36.7001L40.5279 36.7301L40.6156 36.736C42.5097 36.8226 44.8258 36.4198 46.2482 35.7572C47.3721 35.2342 50.974 33.3275 50.1258 30.7532Z" fill="black"/>
        <path d="M46.8872 31.2536C41.2552 32.4186 40.8679 30.5065 40.8679 30.5065C46.8143 21.6586 49.3002 10.4274 47.1552 7.67859C41.3027 0.180453 31.1721 3.72662 31.003 3.81854L30.9486 3.82841C29.8359 3.59673 28.5907 3.45887 27.1911 3.43589C24.6428 3.39411 22.7097 4.10585 21.2428 5.22132C21.2428 5.22132 3.17072 -2.24436 4.01135 14.6107C4.19012 18.1963 9.13661 41.7421 15.0364 34.6302C17.1928 32.0295 19.2765 29.8307 19.2765 29.8307C20.3112 30.52 21.5501 30.8717 22.8489 30.7454L22.9498 30.6596C22.9184 30.9824 22.9328 31.2982 22.9901 31.6721C21.4702 33.3749 21.917 33.6738 18.8786 34.3011C15.8041 34.9365 17.6102 36.0675 18.7894 36.3634C20.219 36.7217 23.5263 37.2295 25.7609 34.0926L25.6719 34.4505C26.2673 34.9289 26.6854 37.5616 26.6154 39.9485C26.5453 42.3351 26.4985 43.9738 26.9676 45.2537C27.4371 46.5336 27.9046 49.4134 31.8989 48.5552C35.2363 47.838 36.9658 45.9795 37.2065 42.8792C37.3772 40.6752 37.7637 41.0011 37.7879 39.0305L38.0979 38.0977C38.4553 35.11 38.1547 34.1461 40.2108 34.5945L40.7107 34.6385C42.2238 34.7075 44.2047 34.3943 45.3673 33.8525C47.8704 32.6877 49.3555 30.7426 46.8872 31.2536Z" fill="#336791"/>
        <path d="M22.3006 16.2142C21.7931 16.1433 21.3335 16.2088 21.1009 16.3854C20.9703 16.4848 20.9297 16.5998 20.9188 16.679C20.8896 16.8889 21.0362 17.1209 21.1263 17.2406C21.3812 17.5793 21.7535 17.8121 22.1221 17.8634C22.1755 17.871 22.2287 17.8744 22.2815 17.8744C22.896 17.8744 23.4549 17.3946 23.5041 17.0404C23.5657 16.5968 22.9235 16.301 22.3006 16.2142ZM39.1141 16.2282C39.0656 15.8805 38.4486 15.7814 37.8631 15.863C37.2783 15.9447 36.7113 16.2094 36.7587 16.5579C36.7965 16.8289 37.2845 17.2914 37.8621 17.2914C37.911 17.2914 37.9602 17.2882 38.0099 17.2812C38.3954 17.2276 38.6783 16.9821 38.8128 16.8406C39.0173 16.6249 39.1359 16.3845 39.1141 16.2282Z" fill="white"/>
        <path d="M48.7613 31.1212C48.5465 30.47 47.8553 30.2606 46.707 30.4983C43.2973 31.204 42.0762 30.7152 41.6753 30.4192C44.3256 26.3705 46.5058 21.4764 47.682 16.9103C48.2392 14.7474 48.5469 12.7386 48.5721 11.1013C48.5999 9.30428 48.2947 7.98373 47.6652 7.17703C45.1272 3.92503 41.4022 2.18062 36.8932 2.13277C33.7933 2.09782 31.1742 2.89331 30.6665 3.11701C29.5973 2.85039 28.4317 2.6867 27.1627 2.66581C24.8356 2.62802 22.8241 3.1867 21.1587 4.32553C20.4353 4.05549 18.5658 3.41192 16.2795 3.04257C12.3268 2.40451 9.18587 2.88799 6.94442 4.4803C4.26986 6.38043 3.03513 9.77693 3.27431 14.5753C3.35479 16.1896 4.27213 21.1559 5.71971 25.9119C7.62522 32.1717 9.69657 35.7154 11.8759 36.4445C12.131 36.5297 12.4251 36.5894 12.7495 36.5894C13.5445 36.5894 14.5192 36.2301 15.5333 35.0075C16.7702 33.5196 18.0498 32.0677 19.3703 30.6539C20.227 31.1149 21.1682 31.3724 22.1308 31.3983C22.1327 31.4235 22.1351 31.4488 22.1374 31.4739C21.9717 31.672 21.8095 31.873 21.6507 32.0768C20.9837 32.9258 20.8449 33.1026 18.698 33.5458C18.0872 33.6723 16.4652 34.0075 16.4414 35.1476C16.4156 36.3934 18.3588 36.9165 18.5802 36.972C19.3517 37.1657 20.095 37.2612 20.8038 37.2612C22.5277 37.2612 24.0448 36.693 25.2572 35.5937C25.2199 40.0347 25.4045 44.4107 25.9363 45.744C26.3718 46.8355 27.4358 49.503 30.7964 49.5029C31.2895 49.5029 31.8323 49.4453 32.4294 49.317C35.9368 48.5631 37.46 47.0085 38.0491 43.5814C38.3644 41.7499 38.9055 37.3763 39.16 35.0303C39.697 35.1983 40.3885 35.2753 41.1359 35.2751C42.6949 35.2751 44.4937 34.9429 45.6218 34.4179C46.8891 33.8277 49.176 32.3795 48.7613 31.1212ZM40.4087 15.2684C40.3972 15.961 40.3021 16.5898 40.2013 17.2461C40.0928 17.9519 39.9807 18.6817 39.9525 19.5676C39.9247 20.4297 40.032 21.326 40.1358 22.1929C40.3457 23.9438 40.561 25.7463 39.7275 27.5249C39.5891 27.2789 39.4658 27.0247 39.3583 26.7636C39.2547 26.5118 39.0297 26.1073 38.7182 25.5475C37.5063 23.3682 34.6686 18.2649 36.1213 16.1824C36.554 15.5626 37.6522 14.9253 40.4087 15.2684ZM37.0674 3.53517C41.1075 3.62461 44.3034 5.1402 46.5661 8.03958C48.3015 10.2635 46.3905 20.3826 40.8583 29.1125C40.8027 29.0415 40.7467 28.9708 40.6905 28.9003L40.6204 28.8126C42.05 26.4451 41.7705 24.1027 41.5217 22.026C41.4194 21.1737 41.3228 20.3688 41.3474 19.6126C41.3728 18.8112 41.4785 18.1238 41.5808 17.4591C41.7063 16.6401 41.8341 15.7926 41.7989 14.7935C41.8252 14.6887 41.8358 14.5649 41.822 14.4179C41.7321 13.4599 40.6413 10.5926 38.418 7.99743C37.2018 6.57793 35.4283 4.98942 33.0068 3.91801C34.0484 3.70152 35.4727 3.49966 37.0674 3.53517ZM14.4601 34.1127C13.3428 35.4598 12.5713 35.2016 12.3176 35.1169C10.6643 34.5639 8.74592 31.0599 7.05462 25.5034C5.59113 20.6956 4.73591 15.8609 4.66811 14.5052C4.4545 10.2177 5.49095 7.22963 7.74887 5.62387C11.4235 3.01086 17.465 4.57487 19.8926 5.36807C19.8577 5.40264 19.8214 5.43492 19.7869 5.47005C15.8032 9.50428 15.8977 16.3968 15.9075 16.8182C15.9072 16.9808 15.9208 17.2109 15.9394 17.5275C16.0079 18.6868 16.1355 20.8445 15.7947 23.2879C15.478 25.5585 16.1761 27.7809 17.7094 29.3853C17.8668 29.5497 18.0322 29.7061 18.205 29.854C17.5225 30.587 16.0392 32.208 14.4601 34.1127ZM18.7171 28.4171C17.4812 27.1238 16.9199 25.3251 17.1769 23.4816C17.5367 20.9005 17.404 18.6524 17.3326 17.4447C17.3226 17.2757 17.3136 17.1276 17.3085 17.0108C17.8905 16.4933 20.5874 15.0444 22.5107 15.4863C23.3882 15.6877 23.923 16.2871 24.1454 17.3178C25.296 22.6546 24.2976 24.8789 23.4954 26.6664C23.3301 27.0346 23.1739 27.3827 23.0405 27.7427L22.9371 28.0211C22.6754 28.7249 22.4319 29.3793 22.281 30.0006C20.9671 29.9968 19.689 29.4342 18.7171 28.4171ZM18.9188 35.6142C18.5351 35.5181 18.1901 35.3512 17.9876 35.2128C18.1567 35.133 18.4577 35.0244 18.9796 34.9165C21.5053 34.3953 21.8954 34.0272 22.7472 32.9427C22.9424 32.694 23.1638 32.4121 23.4704 32.0688L23.4708 32.0684C23.9274 31.5557 24.1363 31.6427 24.515 31.8003C24.822 31.9275 25.121 32.3134 25.2422 32.738C25.2996 32.9385 25.364 33.3191 25.1532 33.6153C23.3738 36.1137 20.7809 36.0816 18.9188 35.6142ZM32.137 47.9485C29.0471 48.6124 27.9531 47.0315 27.2322 45.2242C26.7669 44.0575 26.5381 38.7962 26.7004 32.9858C26.7025 32.9085 26.6915 32.8339 26.6703 32.7636C26.6513 32.6249 26.6225 32.4877 26.5839 32.3531C26.3427 31.5077 25.7547 30.8005 25.0492 30.5073C24.769 30.3909 24.2546 30.1772 23.6365 30.3358C23.7683 29.7912 23.9969 29.1761 24.2448 28.5101L24.3487 28.23C24.4658 27.9142 24.6127 27.587 24.768 27.2406C25.6075 25.3705 26.7572 22.809 25.5094 17.0222C25.0421 14.8547 23.4812 13.7962 21.1152 14.0421C19.6967 14.1893 18.399 14.7631 17.7517 15.0922C17.6125 15.1629 17.4852 15.2312 17.3663 15.2977C17.547 13.1139 18.2295 9.03253 20.7826 6.45033C22.3902 4.82477 24.5311 4.02188 27.1396 4.06518C32.2792 4.14949 35.5751 6.79438 37.4351 8.99858C39.038 10.8977 39.9059 12.811 40.2523 13.8429C37.6474 13.5772 35.8758 14.0928 34.9778 15.3803C33.024 18.1809 36.0466 23.6166 37.4993 26.229C37.7658 26.7078 37.9957 27.1216 38.068 27.2974C38.5411 28.4471 39.1535 29.2146 39.6007 29.7748C39.7378 29.9465 39.8707 30.113 39.9718 30.2585C39.1829 30.4866 37.7658 31.0135 37.8949 33.6476C37.7908 34.9693 37.0501 41.1574 36.6739 43.3437C36.1771 46.232 35.1172 47.3076 32.137 47.9485ZM45.0342 33.1486C44.2275 33.524 42.8774 33.8056 41.595 33.8662C40.1784 33.9327 39.4573 33.7071 39.2876 33.5682C39.2081 31.9268 39.8173 31.7553 40.4621 31.5737C40.5634 31.5453 40.6623 31.5173 40.7577 31.4839C40.817 31.5323 40.882 31.5804 40.9532 31.6275C42.0917 32.381 44.1224 32.4623 46.9893 31.8688L47.0207 31.8626C46.634 32.2251 45.9724 32.7116 45.0342 33.1486Z" fill="white"/>
    </g>
    <defs>
        <clipPath id="clip0_152_285">
            <rect width="50" height="50" fill="white" transform="translate(0.890015 0.801636)"/>
        </clipPath>
    </defs>
</svg>
