<svg width="50" height="50" viewBox="0 0 50 50" fill="none" xmlns="http://www.w3.org/2000/svg">
<path d="M45.9972 30.4519C40.3652 31.6169 39.9779 29.7048 39.9779 29.7048C45.9243 20.8569 48.4102 9.62569 46.2651 6.87689C40.4127 -0.621243 30.282 2.92493 30.1129 3.01684L30.0586 3.02671C28.9458 2.79504 27.7007 2.65717 26.301 2.63419C23.7528 2.59242 21.8196 3.30416 20.3527 4.41962C20.3527 4.41962 2.2807 -3.04606 3.12134 13.809C3.30011 17.3946 8.2466 40.9404 14.1463 33.8285C16.3028 31.2278 18.3865 29.029 18.3865 29.029C19.4212 29.7183 20.6601 30.07 21.9588 29.9437L22.0598 29.8579C22.0283 30.1807 22.0427 30.4965 22.1001 30.8704C20.5802 32.5732 21.0269 32.8721 17.9886 33.4994C14.9141 34.1348 16.7201 35.2658 17.8994 35.5617C19.329 35.92 22.6362 36.4278 24.8708 33.2909L24.7818 33.6488C25.3772 34.1272 25.7954 36.7599 25.7253 39.1468C25.6552 41.5334 25.6085 43.1721 26.0775 44.452C26.547 45.7319 27.0146 48.6117 31.0089 47.7535C34.3462 47.0364 36.0758 45.1778 36.3165 42.0775C36.4872 39.8735 36.8736 40.1994 36.8979 38.2288L37.2079 37.296C37.5653 34.3083 37.2647 33.3444 39.3208 33.7928L39.8207 33.8368C41.3338 33.9058 43.3146 33.5926 44.4772 33.0508C46.9804 31.886 48.4655 29.9409 45.9972 30.4519Z" fill="#336791"/>
<path d="M21.4106 15.4125C20.9031 15.3416 20.4434 15.4071 20.2109 15.5837C20.0802 15.6831 20.0397 15.7981 20.0287 15.8773C19.9995 16.0872 20.1461 16.3192 20.2363 16.4389C20.4912 16.7776 20.8635 17.0104 21.232 17.0617C21.2854 17.0693 21.3386 17.0727 21.3915 17.0727C22.006 17.0727 22.5648 16.5929 22.6141 16.2387C22.6756 15.7951 22.0334 15.4993 21.4106 15.4125ZM38.2241 15.4265C38.1756 15.0788 37.5586 14.9797 36.973 15.0613C36.3883 15.143 35.8213 15.4077 35.8686 15.7562C35.9065 16.0272 36.3945 16.4897 36.9721 16.4897C37.021 16.4897 37.0702 16.4865 37.1198 16.4795C37.5054 16.4259 37.7883 16.1804 37.9228 16.0389C38.1273 15.8232 38.2458 15.5828 38.2241 15.4265Z" fill="white"/>
<path d="M47.8713 30.3197C47.6565 29.6685 46.9653 29.459 45.817 29.6968C42.4073 30.4025 41.1862 29.9137 40.7853 29.6176C43.4356 25.569 45.6158 20.6749 46.792 16.1088C47.3492 13.9458 47.6569 11.9371 47.6821 10.2998C47.7099 8.50271 47.4047 7.18216 46.7752 6.37546C44.2372 3.12346 40.5121 1.37905 36.0032 1.33119C32.9033 1.29625 30.2842 2.09174 29.7765 2.31544C28.7073 2.04882 27.5417 1.88513 26.2727 1.86424C23.9456 1.82645 21.9341 2.38513 20.2687 3.52395C19.5453 3.25392 17.6758 2.61035 15.3895 2.241C11.4368 1.60294 8.29585 2.08642 6.0544 3.67872C3.37984 5.57886 2.14511 8.97536 2.38429 13.7738C2.46478 15.3881 3.38211 20.3543 4.8297 25.1104C6.7352 31.3702 8.80655 34.9139 10.9859 35.6429C11.241 35.7282 11.5351 35.7878 11.8595 35.7878C12.6545 35.7878 13.6292 35.4285 14.6433 34.2059C15.8802 32.718 17.1598 31.2662 18.4803 29.8523C19.337 30.3134 20.2782 30.5709 21.2408 30.5967C21.2427 30.622 21.2451 30.6472 21.2474 30.6723C21.0817 30.8704 20.9195 31.0714 20.7607 31.2752C20.0937 32.1243 19.9549 32.3011 17.808 32.7443C17.1972 32.8708 15.5752 33.2059 15.5514 34.3461C15.5256 35.5918 17.4688 36.115 17.6902 36.1705C18.4617 36.3641 19.205 36.4597 19.9138 36.4597C21.6377 36.4597 23.1548 35.8915 24.3672 34.7922C24.3299 39.2331 24.5145 43.6092 25.0463 44.9425C25.4818 46.034 26.5458 48.7015 29.9064 48.7013C30.3995 48.7013 30.9423 48.6438 31.5394 48.5154C35.0468 47.7615 36.57 46.207 37.159 42.7799C37.4744 40.9483 38.0154 36.5747 38.27 34.2287C38.807 34.3968 39.4984 34.4737 40.2459 34.4735C41.8048 34.4735 43.6037 34.1414 44.7318 33.6163C45.9991 33.0261 48.286 31.5779 47.8713 30.3197ZM39.5187 14.4669C39.5071 15.1595 39.412 15.7882 39.3113 16.4445C39.2028 17.1504 39.0907 17.8801 39.0625 18.766C39.0346 19.6282 39.142 20.5245 39.2458 21.3914C39.4557 23.1422 39.671 24.9448 38.8375 26.7234C38.6991 26.4774 38.5757 26.2231 38.4683 25.9621C38.3647 25.7102 38.1397 25.3058 37.8282 24.7459C36.6163 22.5667 33.7786 17.4633 35.2313 15.3809C35.664 14.7611 36.7621 14.1238 39.5187 14.4669ZM36.1773 2.73359C40.2175 2.82304 43.4134 4.33862 45.676 7.23801C47.4114 9.46191 45.5005 19.5811 39.9683 28.3109C39.9127 28.24 39.8567 28.1693 39.8005 28.0988L39.7304 28.0111C41.16 25.6436 40.8805 23.3012 40.6316 21.2245C40.5294 20.3722 40.4328 19.5672 40.4574 18.811C40.4828 18.0097 40.5885 17.3222 40.6908 16.6576C40.8163 15.8385 40.9441 14.991 40.9089 13.992C40.9352 13.8871 40.9458 13.7633 40.932 13.6163C40.842 12.6583 39.7513 9.79101 37.528 7.19586C36.3118 5.77636 34.5383 4.18784 32.1168 3.11643C33.1583 2.89995 34.5826 2.69808 36.1773 2.73359ZM13.5701 33.3111C12.4528 34.6583 11.6813 34.4 11.4276 34.3153C9.7743 33.7623 7.8559 30.2583 6.1646 24.7019C4.70111 19.894 3.84589 15.0594 3.7781 13.7037C3.56448 9.41616 4.60093 6.42806 6.85885 4.82229C10.5335 2.20928 16.575 3.77329 19.0026 4.5665C18.9677 4.60106 18.9314 4.63334 18.8969 4.66847C14.9132 8.70271 15.0077 15.5953 15.0175 16.0167C15.0172 16.1792 15.0308 16.4094 15.0494 16.7259C15.1179 17.8853 15.2455 20.0429 14.9047 22.4863C14.588 24.757 15.2861 26.9793 16.8194 28.5838C16.9768 28.7481 17.1422 28.9046 17.315 29.0525C16.6325 29.7855 15.1492 31.4065 13.5701 33.3111ZM17.8271 27.6155C16.5912 26.3223 16.0299 24.5236 16.2869 22.68C16.6467 20.0989 16.514 17.8509 16.4426 16.6431C16.4326 16.4741 16.4236 16.326 16.4185 16.2092C17.0005 15.6917 19.6974 14.2428 21.6207 14.6847C22.4982 14.8862 23.033 15.4855 23.2554 16.5163C24.406 21.853 23.4076 24.0773 22.6054 25.8648C22.4401 26.233 22.2839 26.5811 22.1505 26.9412L22.0471 27.2196C21.7854 27.9233 21.5419 28.5777 21.391 29.1991C20.0771 29.1953 18.799 28.6326 17.8271 27.6155ZM18.0288 34.8127C17.6451 34.7166 17.3001 34.5497 17.0976 34.4112C17.2667 34.3315 17.5677 34.2228 18.0896 34.115C20.6153 33.5937 21.0054 33.2257 21.8572 32.1412C22.0524 31.8924 22.2738 31.6106 22.5804 31.2673L22.5808 31.2669C23.0374 30.7542 23.2463 30.8411 23.625 30.9987C23.932 31.126 24.231 31.5118 24.3522 31.9365C24.4096 32.137 24.474 32.5176 24.2632 32.8138C22.4838 35.3121 19.8909 35.28 18.0288 34.8127ZM31.247 47.147C28.1571 47.8109 27.0631 46.23 26.3422 44.4227C25.8769 43.256 25.6481 37.9946 25.8104 32.1843C25.8125 32.107 25.8015 32.0324 25.7803 31.9621C25.7613 31.8234 25.7325 31.6861 25.6939 31.5515C25.4527 30.7061 24.8647 29.9989 24.1592 29.7057C23.879 29.5893 23.3646 29.3757 22.7465 29.5342C22.8783 28.9896 23.1069 28.3745 23.3548 27.7086L23.4587 27.4285C23.5758 27.1126 23.7227 26.7855 23.878 26.4391C24.7175 24.569 25.8672 22.0074 24.6194 16.2206C24.1521 14.0531 22.5912 12.9946 20.2252 13.2405C18.8067 13.3877 17.509 13.9616 16.8617 14.2907C16.7225 14.3613 16.5952 14.4297 16.4763 14.4961C16.657 12.3123 17.3395 8.23096 19.8926 5.64876C21.5002 4.0232 23.6411 3.22031 26.2496 3.2636C31.3892 3.34792 34.6851 5.99281 36.5451 8.19701C38.148 10.0962 39.0159 12.0094 39.3623 13.0413C36.7574 12.7757 34.9858 13.2912 34.0878 14.5787C32.134 17.3794 35.1566 22.815 36.6093 25.4275C36.8757 25.9062 37.1057 26.32 37.178 26.4959C37.6511 27.6455 38.2635 28.4131 38.7107 28.9733C38.8478 29.1449 38.9807 29.3115 39.0818 29.457C38.2928 29.685 36.8758 30.212 37.0049 32.8461C36.9008 34.1678 36.1601 40.3558 35.7839 42.5421C35.2871 45.4305 34.2272 46.5061 31.247 47.147ZM44.1442 32.347C43.3374 32.7225 41.9874 33.0041 40.7049 33.0647C39.2884 33.1311 38.5672 32.9055 38.3976 32.7667C38.318 31.1252 38.9272 30.9537 39.5721 30.7722C39.6734 30.7437 39.7722 30.7158 39.8677 30.6824C39.927 30.7308 39.9919 30.7788 40.0631 30.8259C41.2016 31.5795 43.2323 31.6607 46.0993 31.0673L46.1307 31.061C45.744 31.4235 45.0823 31.9101 44.1442 32.347Z" fill="white"/>
</svg>
