<svg width="51" height="51" viewBox="0 0 51 51" fill="none" xmlns="http://www.w3.org/2000/svg">
    <g clip-path="url(#clip0_152_317)">
        <path d="M25.7099 0.802124C13.0168 0.802124 13.8093 6.30663 13.8093 6.30663L13.8234 12.0094H25.9362V13.7216H9.01236C9.01236 13.7216 0.890015 12.8004 0.890015 25.6077C0.890015 38.4153 7.97941 37.9611 7.97941 37.9611H12.2103V32.0179C12.2103 32.0179 11.9822 24.9285 19.1865 24.9285H31.2003C31.2003 24.9285 37.95 25.0375 37.95 18.4051V7.43883C37.95 7.43883 38.9751 0.802124 25.7099 0.802124ZM19.0309 4.63716C19.3171 4.6369 19.6006 4.69309 19.8651 4.80251C20.1296 4.91193 20.3699 5.07243 20.5723 5.27483C20.7747 5.47722 20.9352 5.71754 21.0446 5.98203C21.154 6.24653 21.2102 6.53003 21.21 6.81623C21.2102 7.10248 21.154 7.38593 21.0446 7.65043C20.9352 7.91493 20.7747 8.15528 20.5723 8.35768C20.3699 8.56008 20.1296 8.72058 19.8651 8.82998C19.6006 8.93938 19.3171 8.99558 19.0309 8.99533C18.7446 8.99558 18.4612 8.93938 18.1967 8.82998C17.9322 8.72058 17.6919 8.56008 17.4895 8.35768C17.2871 8.15528 17.1266 7.91493 17.0171 7.65043C16.9077 7.38593 16.8515 7.10248 16.8518 6.81623C16.8515 6.53003 16.9077 6.24653 17.0171 5.98203C17.1266 5.71754 17.2871 5.47722 17.4895 5.27483C17.6919 5.07243 17.9322 4.91193 18.1967 4.80251C18.4612 4.69309 18.7446 4.6369 19.0309 4.63716Z" fill="url(#paint0_linear_152_317)"/>
        <path d="M26.0704 50.542C38.7635 50.542 37.971 45.0374 37.971 45.0374L37.9569 39.3348H25.8438V37.6227H42.7677C42.7677 37.6227 50.89 38.5438 50.89 25.7362C50.89 12.9287 43.8007 13.3829 43.8007 13.3829H39.5697V19.326C39.5697 19.326 39.7978 26.4153 32.5935 26.4153H20.5798C20.5798 26.4153 13.8301 26.3063 13.8301 32.9389V43.9054C13.8301 43.9054 12.8053 50.542 26.0704 50.542ZM32.7494 46.7073C32.4631 46.7076 32.1797 46.6514 31.9152 46.542C31.6507 46.4325 31.4104 46.272 31.208 46.0696C31.0056 45.8672 30.8451 45.6269 30.7356 45.3624C30.6262 45.0979 30.57 44.8144 30.5703 44.5282C30.57 44.242 30.6262 43.9585 30.7356 43.6939C30.845 43.4294 31.0055 43.1891 31.2079 42.9867C31.4103 42.7842 31.6506 42.6237 31.9151 42.5143C32.1796 42.4049 32.4631 42.3487 32.7494 42.3489C33.0356 42.3487 33.3191 42.4049 33.5836 42.5143C33.8481 42.6237 34.0884 42.7842 34.2908 42.9866C34.4932 43.189 34.6537 43.4293 34.7631 43.6938C34.8725 43.9583 34.9287 44.2418 34.9285 44.528C34.9287 44.8142 34.8725 45.0977 34.7631 45.3622C34.6537 45.6267 34.4932 45.867 34.2908 46.0694C34.0884 46.2718 33.8481 46.4323 33.5836 46.5418C33.3191 46.6512 33.0356 46.7075 32.7494 46.7073Z" fill="url(#paint1_linear_152_317)"/>
    </g>
    <defs>
        <linearGradient id="paint0_linear_152_317" x1="5.695" y1="5.27593" x2="30.4735" y2="29.8072" gradientUnits="userSpaceOnUse">
            <stop stop-color="#387EB8"/>
            <stop offset="1" stop-color="#366994"/>
        </linearGradient>
        <linearGradient id="paint1_linear_152_317" x1="20.9041" y1="21.0283" x2="47.5133" y2="46.1828" gradientUnits="userSpaceOnUse">
            <stop stop-color="#FFE052"/>
            <stop offset="1" stop-color="#FFC331"/>
        </linearGradient>
        <clipPath id="clip0_152_317">
            <rect width="50" height="50" fill="white" transform="translate(0.890015 0.801636)"/>
        </clipPath>
    </defs>
</svg>
