<svg width="51" height="51" viewBox="0 0 51 51" fill="none" xmlns="http://www.w3.org/2000/svg">
    <g clip-path="url(#clip0_152_248)">
        <path d="M25.89 30.1766C27.823 30.1766 29.39 28.2179 29.39 25.8016C29.39 23.3854 27.823 21.4266 25.89 21.4266C23.957 21.4266 22.39 23.3854 22.39 25.8016C22.39 28.2179 23.957 30.1766 25.89 30.1766Z" fill="#61DAFB"/>
        <path d="M25.89 34.5516C39.0068 34.5516 49.64 30.6341 49.64 25.8016C49.64 20.9692 39.0068 17.0516 25.89 17.0516C12.7733 17.0516 2.14001 20.9692 2.14001 25.8016C2.14001 30.6341 12.7733 34.5516 25.89 34.5516Z" stroke="#61DAFB" stroke-width="2"/>
        <path d="M17.6167 30.3753C24.5259 41.8337 33.8309 49.0749 38.4001 46.549C42.9694 44.0231 41.0725 32.6865 34.1633 21.2281C27.2541 9.76956 17.9491 2.52835 13.3799 5.05428C8.81067 7.58021 10.7076 18.9168 17.6167 30.3753Z" stroke="#61DAFB" stroke-width="2"/>
        <path d="M17.6167 21.228C10.7076 32.6865 8.81066 44.0231 13.3799 46.549C17.9491 49.0749 27.2542 41.8337 34.1633 30.3753C41.0725 18.9168 42.9694 7.58022 38.4001 5.05428C33.8309 2.52835 24.5259 9.76957 17.6167 21.228Z" stroke="#61DAFB" stroke-width="2"/>
    </g>
    <defs>
        <clipPath id="clip0_152_248">
            <rect width="50" height="50" fill="white" transform="translate(0.890015 0.801636)"/>
        </clipPath>
    </defs>
</svg>
