<svg width="51" height="51" viewBox="0 0 51 51" fill="none" xmlns="http://www.w3.org/2000/svg">
    <g clip-path="url(#clip0_152_253)">
        <path d="M35.5348 35.4528C37.3799 35.2618 38.7797 33.6712 38.716 31.7622C38.6526 29.8534 37.0617 28.3263 35.1529 28.3263H35.0258C33.0531 28.39 31.5262 30.0442 31.5899 32.0167C31.6535 32.9712 32.0352 33.7984 32.6078 34.371C30.4445 38.6343 27.1359 41.7521 22.1731 44.3608C18.8008 46.1425 15.3014 46.7788 11.8019 46.3335C8.93867 45.9517 6.71172 44.6792 5.3117 42.5792C3.27576 39.4614 3.08494 36.089 4.80291 32.7167C6.01192 30.2987 7.92047 28.5171 9.12947 27.6263C8.87497 26.7991 8.49317 25.3993 8.30232 24.3814C-0.923659 31.0624 0.0308309 40.0978 2.83045 44.3608C4.93006 47.5425 9.19317 49.515 13.9016 49.515C15.174 49.515 16.4465 49.3876 17.7191 49.0696C25.8635 47.4788 32.0354 42.6429 35.5348 35.4528ZM46.7332 27.5628C41.8975 21.8997 34.7713 18.7819 26.627 18.7819H25.609C25.0363 17.6366 23.8274 16.873 22.4912 16.873H22.3639C20.3916 16.9366 18.8647 18.5909 18.9281 20.5636C18.9918 22.4724 20.5824 23.9995 22.4912 23.9995H22.6184C24.0182 23.9359 25.2272 23.045 25.7361 21.836H26.8815C31.7172 21.836 36.2983 23.2359 40.4342 25.972C43.6155 28.0718 45.9061 30.8079 47.1785 34.1165C48.2602 36.789 48.1965 39.3978 47.0512 41.6249C45.2698 44.9972 42.2793 46.8425 38.3344 46.8425C35.7893 46.8425 33.3715 46.0788 32.0988 45.5062C31.399 46.1425 30.1264 47.1605 29.2356 47.797C31.9717 49.0694 34.7713 49.7694 37.4436 49.7694C43.5518 49.7694 48.0694 46.397 49.7873 43.0247C51.6325 39.3341 51.505 32.9712 46.7332 27.5628ZM14.4105 36.5343C14.4742 38.4433 16.0648 39.9702 17.9736 39.9702H18.101C20.0734 39.9067 21.6004 38.2523 21.5367 36.2798C21.4732 34.3708 19.8824 32.8439 17.9736 32.8439H17.8465C17.7191 32.8439 17.5281 32.8439 17.4012 32.9073C14.7924 28.5806 13.7107 23.8722 14.0926 18.7818C14.3469 14.964 15.6195 11.6552 17.8465 8.91908C19.6916 6.56478 23.2547 5.41945 25.6727 5.35598C32.417 5.22863 35.2801 13.6276 35.4711 17.0001C36.2983 17.1909 37.6981 17.6364 38.6526 17.9546C37.8889 7.64678 31.5262 2.30188 25.4182 2.30188C19.6916 2.30188 14.4105 6.43784 12.3107 12.5462C9.38397 20.6907 11.2928 28.5171 14.8559 34.6892C14.5379 35.1345 14.3469 35.8343 14.4105 36.5343Z" fill="#764ABC"/>
    </g>
    <defs>
        <clipPath id="clip0_152_253">
            <rect width="50" height="50" fill="white" transform="translate(0.890015 0.801636)"/>
        </clipPath>
    </defs>
</svg>
