<svg width="51" height="51" viewBox="0 0 51 51" fill="none" xmlns="http://www.w3.org/2000/svg">
    <g clip-path="url(#clip0_152_283)">
        <path d="M25.8902 10.8019C19.2234 10.8019 15.0568 14.1344 13.3899 20.7987C15.8902 17.4662 18.807 16.217 22.1401 17.0498C24.0421 17.525 25.4013 18.9049 26.9063 20.4317C29.3572 22.9189 32.1939 25.7975 38.3906 25.7975C45.0568 25.7975 49.224 22.465 50.8901 15.8C48.3906 19.1325 45.4738 20.3823 42.1401 19.5495C40.2388 19.0743 38.8795 17.6944 37.3746 16.1676C34.9236 13.6804 32.0863 10.8019 25.8902 10.8019ZM13.3899 25.7975C6.72369 25.7975 2.55651 29.13 0.890259 35.7949C3.38995 32.4625 6.30669 31.2126 9.64044 32.0461C11.5417 32.5219 12.901 33.9011 14.4059 35.4273C16.8569 37.9145 19.6942 40.7937 25.8902 40.7937C32.5571 40.7937 36.7237 37.4612 38.3906 30.7962C35.8902 34.1287 32.9735 35.3785 29.6404 34.5451C27.7384 34.0706 26.3792 32.69 24.8742 31.1638C22.4233 28.6767 19.5866 25.7975 13.3899 25.7975Z" fill="#5DD0FD"/>
    </g>
    <defs>
        <clipPath id="clip0_152_283">
            <rect width="50" height="50" fill="white" transform="translate(0.890015 0.801636)"/>
        </clipPath>
    </defs>
</svg>
