<svg width="51" height="51" viewBox="0 0 51 51" fill="none" xmlns="http://www.w3.org/2000/svg">
    <g clip-path="url(#clip0_152_245)">
        <path d="M0.890015 0.802124H50.89V50.8019H0.890015V0.802124Z" fill="#017ACB"/>
        <path d="M24.8979 19.3175H27.2963V23.4581H20.8119V41.88L20.64 41.9269C20.4057 41.9894 17.3197 41.9894 16.6557 41.9191L16.1244 41.8722V23.4581H9.64001V19.3175L11.6947 19.2941C12.8197 19.2784 15.7103 19.2784 18.1166 19.2941C20.5229 19.3097 23.5697 19.3175 24.8979 19.3175ZM43.2026 39.9269C42.2495 40.9347 41.226 41.4972 39.5229 41.9581C38.7807 42.1612 38.6557 42.1691 36.9838 42.1612C35.3119 42.1534 35.1791 42.1534 34.3666 41.9425C32.2651 41.4034 30.5697 40.3487 29.4135 38.8566C29.0854 38.4347 28.5463 37.5597 28.5463 37.4503C28.5463 37.4191 28.6244 37.3487 28.726 37.3019C28.8276 37.255 29.0385 37.1222 29.2104 37.0206C29.3822 36.9191 29.6947 36.7316 29.9057 36.6222C30.1166 36.5128 30.726 36.1534 31.2573 35.8331C31.7885 35.5128 32.2729 35.255 32.3276 35.255C32.3823 35.255 32.4838 35.3644 32.5619 35.4972C33.0307 36.2862 34.1244 37.2941 34.8979 37.6378C35.3744 37.8409 36.4291 38.0675 36.9369 38.0675C37.4057 38.0675 38.2651 37.8644 38.726 37.6534C39.2182 37.4269 39.4682 37.2003 39.7651 36.7472C39.9682 36.4269 39.9916 36.3409 39.9838 35.7316C39.9838 35.1691 39.9526 35.0128 39.7963 34.755C39.3588 34.0362 38.7651 33.6612 36.3588 32.5987C33.8744 31.4972 32.7573 30.8409 31.851 29.9581C31.1791 29.3019 31.0463 29.1222 30.6244 28.3019C30.0776 27.2472 30.0072 26.9034 29.9994 25.3331C29.9916 24.2316 30.0151 23.8722 30.1322 23.4972C30.2963 22.9347 30.8276 21.8487 31.0697 21.5753C31.5697 20.9894 31.7494 20.8097 32.101 20.5206C33.1635 19.6456 34.8198 19.0675 36.4057 19.0128C36.5854 19.0128 37.1791 19.0441 37.7338 19.0831C39.3276 19.2159 40.4135 19.6066 41.4604 20.4425C42.2495 21.0675 43.4448 22.5362 43.3276 22.7316C43.2495 22.8487 40.1323 24.9269 39.9291 24.9894C39.8041 25.0284 39.7182 24.9816 39.5463 24.7784C38.4838 23.505 38.0541 23.2316 37.0229 23.1691C36.2885 23.1222 35.8979 23.2081 35.4057 23.5362C34.8901 23.88 34.6401 24.4034 34.6401 25.13C34.6479 26.1925 35.0541 26.6925 36.5541 27.4347C37.5229 27.9112 38.351 28.3019 38.4135 28.3019C38.5073 28.3019 40.5151 29.3019 41.0385 29.6144C43.476 31.0441 44.4682 32.5128 44.726 35.0441C44.9135 36.9503 44.3745 38.6925 43.2026 39.9269Z" fill="white"/>
    </g>
    <defs>
        <clipPath id="clip0_152_245">
            <rect width="50" height="50" fill="white" transform="translate(0.890015 0.801636)"/>
        </clipPath>
    </defs>
</svg>
