<svg width="102" height="102" viewBox="0 0 102 102" fill="none" xmlns="http://www.w3.org/2000/svg">
    <path d="M51.3917 99.9996C79.006 99.9996 101.392 77.6139 101.392 49.9996C101.392 22.3854 79.006 -0.000366211 51.3917 -0.000366211C23.7775 -0.000366211 1.39172 22.3854 1.39172 49.9996C1.39172 77.6139 23.7775 99.9996 51.3917 99.9996Z" fill="#004E8C"/>
    <path opacity="0.1" d="M16.7355 14.0621C11.6526 18.5915 7.54833 24.1113 4.67414 30.283C1.79995 36.4547 0.216439 43.1483 0.0206758 49.9537C-0.175088 56.759 1.02102 63.5327 3.53568 69.8594C6.05034 76.1861 9.83057 81.9326 14.6447 86.7467C19.4588 91.5608 25.2053 95.3411 31.532 97.8557C37.8587 100.37 44.6324 101.566 51.4377 101.371C58.2431 101.175 64.9367 99.5915 71.1084 96.7173C77.2802 93.8431 82.7999 89.7388 87.3293 84.6559L16.7355 14.0621Z" fill="white"/>
    <path d="M53.4073 30.3121L38.8917 69.6871H33.7511L19.4698 30.3121H24.6105L35.548 61.5621C35.9252 62.6952 36.192 63.8621 36.3448 65.0465H36.4542C36.618 63.8312 36.9113 62.6369 37.3292 61.484L48.4542 30.234L53.4073 30.3121Z" fill="white"/>
    <path d="M59.0792 69.6871V30.3121H70.2824C73.1917 30.1564 76.0613 31.0428 78.3761 32.8121C79.3442 33.5938 80.1186 34.5885 80.639 35.7187C81.1593 36.8489 81.4116 38.084 81.3761 39.3278C81.4066 41.4162 80.7537 43.4573 79.5167 45.1403C78.2684 46.8162 76.5162 48.0482 74.5167 48.6559V48.7653C76.9349 48.9602 79.2002 50.0262 80.8917 51.7653C82.5272 53.568 83.3861 55.9428 83.2824 58.3746C83.3335 59.9242 83.0341 61.4653 82.4064 62.883C81.7787 64.3007 80.839 65.5584 79.6574 66.5621C77.1002 68.6956 73.8448 69.8085 70.5167 69.6871H59.0792ZM63.7667 34.4684V47.1871H68.4542C70.5885 47.2875 72.6885 46.6226 74.3761 45.3121C75.1073 44.6751 75.6831 43.8794 76.0596 42.9857C76.436 42.092 76.6031 41.1241 76.548 40.1559C76.548 36.333 74.0324 34.4215 69.0011 34.4215L63.7667 34.4684ZM63.7667 51.3278V65.4996H70.0167C72.2632 65.6298 74.4816 64.9477 76.2667 63.5778C77.0115 62.9249 77.5993 62.1123 77.9862 61.2005C78.3731 60.2888 78.5491 59.3014 78.5011 58.3121C78.5011 53.6663 75.3344 51.3434 69.0011 51.3434L63.7667 51.3278Z" fill="white"/>
</svg>
