<svg width="51" height="51" viewBox="0 0 51 51" fill="none" xmlns="http://www.w3.org/2000/svg">
    <g clip-path="url(#clip0_152_301)">
        <path d="M50.314 8.20235L27.2557 50.1492C26.7796 51.0152 25.5564 51.0202 25.0732 50.1586L1.55773 8.20625C1.0312 7.2672 1.82061 6.1296 2.86676 6.31995L25.9499 10.5173C26.0971 10.544 26.2479 10.5438 26.3951 10.5165L48.9954 6.32585C50.0381 6.1325 50.8311 7.26135 50.314 8.20235Z" fill="url(#paint0_linear_152_301)"/>
        <path d="M36.9454 0.814434L19.8817 4.21602C19.7454 4.24319 19.6218 4.31569 19.5304 4.42212C19.4389 4.52854 19.3849 4.66287 19.3767 4.80396L18.3271 22.8391C18.3213 22.938 18.3383 23.037 18.3766 23.128C18.415 23.2191 18.4737 23.2998 18.5481 23.3638C18.6225 23.4278 18.7105 23.4732 18.8052 23.4965C18.8998 23.5198 18.9985 23.5203 19.0935 23.4981L23.8443 22.3827C24.2888 22.2783 24.6905 22.6766 24.599 23.1313L23.1876 30.1629C23.0927 30.6362 23.5293 31.0407 23.9835 30.9003L26.918 29.9934C27.3728 29.853 27.81 30.2587 27.7137 30.7323L25.4707 41.7773C25.3303 42.4682 26.2336 42.8449 26.6102 42.2526L26.862 41.857L40.7665 13.6269C40.9995 13.1542 40.5978 12.6152 40.0877 12.7155L35.1973 13.6756C34.7379 13.7657 34.3469 13.3304 34.4766 12.8731L37.6683 1.61675C37.7982 1.15834 37.4054 0.722752 36.9454 0.814434Z" fill="url(#paint1_linear_152_301)"/>
    </g>
    <defs>
        <linearGradient id="paint0_linear_152_301" x1="0.983578" y1="9.70425" x2="26.4088" y2="43.6457" gradientUnits="userSpaceOnUse">
            <stop stop-color="#41D1FF"/>
            <stop offset="1" stop-color="#BD34FE"/>
        </linearGradient>
            <linearGradient id="paint1_linear_152_301" x1="28.0892" y1="1.73803" x2="33.3801" y2="37.4141" gradientUnits="userSpaceOnUse">
            <stop stop-color="#FFEA83"/>
            <stop offset="0.083" stop-color="#FFDD35"/>
            <stop offset="1" stop-color="#FFA800"/>
        </linearGradient>
        <clipPath id="clip0_152_301">
            <rect width="50" height="50" fill="white" transform="translate(0.890015 0.801636)"/>
        </clipPath>
    </defs>
</svg>
