<svg width="38" height="35" viewBox="0 0 38 35" fill="none" xmlns="http://www.w3.org/2000/svg">
    <path d="M35.25 11.6896H2.75C2.05859 11.6896 1.5 12.1327 1.5 12.681V32.5086C1.5 33.057 2.05859 33.5 2.75 33.5H35.25C35.9414 33.5 36.5 33.057 36.5 32.5086V12.681C36.5 12.1327 35.9414 11.6896 35.25 11.6896ZM33.6875 15.1223V31.2694H4.3125V15.1223L3.23438 14.4562L4.76953 12.8917L6.44141 13.9233H31.5625L33.2344 12.8917L34.7695 14.4562L33.6875 15.1223ZM31.5625 13.9202L19 21.6654L6.4375 13.9202L4.76563 12.8886L3.23047 14.4531L4.30859 15.1192L17.6523 23.3476C18.0361 23.5841 18.5082 23.7124 18.9941 23.7124C19.4801 23.7124 19.9522 23.5841 20.3359 23.3476L33.6875 15.1223L34.7656 14.4562L33.2305 12.8917L31.5625 13.9202Z" fill="#32FFB7"/>
</svg>
