<svg width="41" height="41" viewBox="0 0 41 41" fill="none" xmlns="http://www.w3.org/2000/svg">
    <g clip-path="url(#clip0_61_130)">
        <path fill-rule="evenodd" clip-rule="evenodd" d="M20.5 0.5C9.45 0.5 0.5 9.45 0.5 20.5C0.5 29.35 6.225 36.825 14.175 39.475C15.175 39.65 15.55 39.05 15.55 38.525C15.55 38.05 15.525 36.475 15.525 34.8C10.5 35.725 9.2 33.575 8.8 32.45C8.575 31.875 7.6 30.1 6.75 29.625C6.05 29.25 5.05 28.325 6.725 28.3C8.3 28.275 9.425 29.75 9.8 30.35C11.6 33.375 14.475 32.525 15.625 32C15.8 30.7 16.325 29.825 16.9 29.325C12.45 28.825 7.8 27.1 7.8 19.45C7.8 17.275 8.575 15.475 9.85 14.075C9.65 13.575 8.95 11.525 10.05 8.775C10.05 8.775 11.725 8.25 15.55 10.825C17.15 10.375 18.85 10.15 20.55 10.15C22.25 10.15 23.95 10.375 25.55 10.825C29.375 8.225 31.05 8.775 31.05 8.775C32.15 11.525 31.45 13.575 31.25 14.075C32.525 15.475 33.3 17.25 33.3 19.45C33.3 27.125 28.625 28.825 24.175 29.325C24.9 29.95 25.525 31.15 25.525 33.025C25.525 35.7 25.5 37.85 25.5 38.525C25.5 39.05 25.875 39.675 26.875 39.475C30.8453 38.1345 34.2953 35.5828 36.7394 32.1789C39.1836 28.7751 40.4988 24.6905 40.5 20.5C40.5 9.45 31.55 0.5 20.5 0.5Z" fill="#32FFB7"/>
    </g>
    <defs>
        <clipPath id="clip0_61_130">
        <rect width="40" height="40" fill="white" transform="translate(0.5 0.5)"/>
        </clipPath>
    </defs>
</svg>
