<svg width="41" height="35" viewBox="0 0 41 35" fill="none" xmlns="http://www.w3.org/2000/svg">
    <g clip-path="url(#clip0_61_124)">
        <path fill-rule="evenodd" clip-rule="evenodd" d="M16.2149 11.615H22.4049V14.6983C23.2966 12.925 25.5833 11.3317 29.0183 11.3317C35.6033 11.3317 37.1666 14.8617 37.1666 21.3383V33.3333H30.4999V22.8133C30.4999 19.125 29.6083 17.045 27.3383 17.045C24.1899 17.045 22.8816 19.2867 22.8816 22.8117V33.3333H16.2149V11.615ZM4.78325 33.05H11.4499V11.3317H4.78325V33.05ZM12.4049 4.25C12.4052 4.80879 12.2943 5.36206 12.0789 5.87765C11.8634 6.39323 11.5477 6.86086 11.1499 7.25333C10.3439 8.05437 9.25294 8.50276 8.11659 8.5C6.98223 8.49924 5.89377 8.052 5.08659 7.255C4.69027 6.86119 4.37556 6.39304 4.16049 5.87739C3.94542 5.36173 3.83422 4.80871 3.83325 4.25C3.83325 3.12167 4.28325 2.04167 5.08825 1.245C5.89473 0.446931 6.98365 -0.000498685 8.11825 4.17108e-07C9.25492 4.17108e-07 10.3449 0.448334 11.1499 1.245C11.9533 2.04167 12.4049 3.12167 12.4049 4.25Z" fill="#32FFB7"/>
    </g>
    <defs>
        <clipPath id="clip0_61_124">
            <rect width="40" height="34" fill="white" transform="translate(0.5 0.5)"/>
        </clipPath>
    </defs>
</svg>
